<svg width="16" height="16" viewBox="0 0 16 16" fill="none" xmlns="http://www.w3.org/2000/svg">
<path d="M14.1188 6.425C13.8813 6.18125 13.6375 5.925 13.5437 5.70625C13.45 5.4875 13.4563 5.1625 13.45 4.83125C13.4438 4.225 13.4313 3.53125 12.95 3.05C12.4688 2.56875 11.775 2.55625 11.1687 2.55C10.8375 2.54375 10.5 2.5375 10.2937 2.45625C10.0875 2.375 9.81875 2.11875 9.575 1.88125C9.14375 1.46875 8.65 1 8 1C7.35 1 6.85625 1.46875 6.425 1.88125C6.18125 2.11875 5.925 2.3625 5.70625 2.45625C5.4875 2.55 5.1625 2.54375 4.83125 2.55C4.225 2.55625 3.53125 2.56875 3.05 3.05C2.56875 3.53125 2.55625 4.225 2.55 4.83125C2.54375 5.1625 2.5375 5.5 2.45625 5.70625C2.375 5.9125 2.11875 6.18125 1.88125 6.425C1.46875 6.85625 1 7.35 1 8C1 8.65 1.46875 9.14375 1.88125 9.575C2.11875 9.81875 2.3625 10.075 2.45625 10.2937C2.55 10.5125 2.54375 10.8375 2.55 11.1687C2.55625 11.775 2.56875 12.4688 3.05 12.95C3.53125 13.4313 4.225 13.4438 4.83125 13.45C5.1625 13.4563 5.5 13.4625 5.70625 13.5437C5.9125 13.625 6.18125 13.8813 6.425 14.1188C6.85625 14.5312 7.35 15 8 15C8.65 15 9.14375 14.5312 9.575 14.1188C9.81875 13.8813 10.075 13.6375 10.2937 13.5437C10.5125 13.45 10.8375 13.4563 11.1687 13.45C11.775 13.4438 12.4688 13.4313 12.95 12.95C13.4313 12.4688 13.4438 11.775 13.45 11.1687C13.4563 10.8375 13.4625 10.5 13.5437 10.2937C13.625 10.0875 13.8813 9.81875 14.1188 9.575C14.5312 9.14375 15 8.65 15 8C15 7.35 14.5312 6.85625 14.1188 6.425Z" fill="#059669"/>
<path d="M5 8.5L7 10.5L10.5 6" stroke="white" stroke-width="2" stroke-linecap="round" stroke-linejoin="round"/>
</svg>
