<svg width="18" height="20" viewBox="0 0 18 20" fill="none" xmlns="http://www.w3.org/2000/svg">
<path d="M9.18529 1.6665H8.81862C8.37659 1.6665 7.95267 1.8421 7.64011 2.15466C7.32755 2.46722 7.15196 2.89114 7.15196 3.33317V3.48317C7.15166 3.77544 7.0745 4.0625 6.92824 4.31554C6.78197 4.56857 6.57174 4.7787 6.31862 4.92484L5.96029 5.13317C5.70692 5.27945 5.41952 5.35646 5.12696 5.35646C4.83439 5.35646 4.54699 5.27945 4.29362 5.13317L4.16862 5.0665C3.78618 4.84589 3.33182 4.78604 2.90529 4.90009C2.47876 5.01415 2.11491 5.29278 1.89362 5.67484L1.71029 5.9915C1.48967 6.37395 1.42982 6.82831 1.54388 7.25484C1.65793 7.68137 1.93657 8.04521 2.31862 8.2665L2.44362 8.34984C2.69552 8.49526 2.90497 8.70408 3.05116 8.95553C3.19736 9.20698 3.2752 9.49231 3.27696 9.78317V10.2082C3.27812 10.5019 3.20166 10.7906 3.05532 11.0453C2.90899 11.2999 2.69796 11.5113 2.44362 11.6582L2.31862 11.7332C1.93657 11.9545 1.65793 12.3183 1.54388 12.7448C1.42982 13.1714 1.48967 13.6257 1.71029 14.0082L1.89362 14.3248C2.11491 14.7069 2.47876 14.9855 2.90529 15.0996C3.33182 15.2136 3.78618 15.1538 4.16862 14.9332L4.29362 14.8665C4.54699 14.7202 4.83439 14.6432 5.12696 14.6432C5.41952 14.6432 5.70692 14.7202 5.96029 14.8665L6.31862 15.0748C6.57174 15.221 6.78197 15.4311 6.92824 15.6841C7.0745 15.9372 7.15166 16.2242 7.15196 16.5165V16.6665C7.15196 17.1085 7.32755 17.5325 7.64011 17.845C7.95267 18.1576 8.37659 18.3332 8.81862 18.3332H9.18529C9.62732 18.3332 10.0512 18.1576 10.3638 17.845C10.6764 17.5325 10.852 17.1085 10.852 16.6665V16.5165C10.8523 16.2242 10.9294 15.9372 11.0757 15.6841C11.2219 15.4311 11.4322 15.221 11.6853 15.0748L12.0436 14.8665C12.297 14.7202 12.5844 14.6432 12.877 14.6432C13.1695 14.6432 13.4569 14.7202 13.7103 14.8665L13.8353 14.9332C14.2177 15.1538 14.6721 15.2136 15.0986 15.0996C15.5252 14.9855 15.889 14.7069 16.1103 14.3248L16.2936 13.9998C16.5142 13.6174 16.5741 13.163 16.46 12.7365C16.346 12.31 16.0673 11.9461 15.6853 11.7248L15.5603 11.6582C15.3059 11.5113 15.0949 11.2999 14.9486 11.0453C14.8022 10.7906 14.7258 10.5019 14.727 10.2082V9.7915C14.7258 9.49782 14.8022 9.20904 14.9486 8.95441C15.0949 8.69978 15.3059 8.48835 15.5603 8.3415L15.6853 8.2665C16.0673 8.04521 16.346 7.68137 16.46 7.25484C16.5741 6.82831 16.5142 6.37395 16.2936 5.9915L16.1103 5.67484C15.889 5.29278 15.5252 5.01415 15.0986 4.90009C14.6721 4.78604 14.2177 4.84589 13.8353 5.0665L13.7103 5.13317C13.4569 5.27945 13.1695 5.35646 12.877 5.35646C12.5844 5.35646 12.297 5.27945 12.0436 5.13317L11.6853 4.92484C11.4322 4.7787 11.2219 4.56857 11.0757 4.31554C10.9294 4.0625 10.8523 3.77544 10.852 3.48317V3.33317C10.852 2.89114 10.6764 2.46722 10.3638 2.15466C10.0512 1.8421 9.62732 1.6665 9.18529 1.6665Z" stroke="currentColor" stroke-width="1.7" stroke-linecap="round" stroke-linejoin="round"/>
<path
        d="M9.00224 12.4998C10.383 12.4998 11.5022 11.3805 11.5022 9.99979C11.5022 8.61908 10.383 7.49979 9.00224 7.49979C7.62153 7.49979 6.50224 8.61908 6.50224 9.99979C6.50224 11.3805 7.62153 12.4998 9.00224 12.4998Z" stroke="currentColor" stroke-width="1.7" stroke-linecap="round" stroke-linejoin="round"/>
</svg>
