<svg width="24" height="24" viewBox="0 0 24 24" fill="none" xmlns="http://www.w3.org/2000/svg">
<circle cx="12" cy="12" r="12" fill="#E7E5E4"/>
<g clip-path="url(#clip0_1_6414)">
<path d="M15.6925 9.69214H8.30784C7.79804 9.69214 7.38477 10.1054 7.38477 10.6152V15.2306C7.38477 15.7404 7.79804 16.1537 8.30784 16.1537H15.6925C16.2023 16.1537 16.6155 15.7404 16.6155 15.2306V10.6152C16.6155 10.1054 16.2023 9.69214 15.6925 9.69214Z" stroke="#78716C" stroke-width="0.923077" stroke-linecap="round" stroke-linejoin="round"/>
<path d="M13.8462 16.1536V8.76902C13.8462 8.52421 13.749 8.28942 13.5759 8.11631C13.4028 7.9432 13.168 7.84595 12.9232 7.84595H11.077C10.8322 7.84595 10.5974 7.9432 10.4243 8.11631C10.2512 8.28942 10.1539 8.52421 10.1539 8.76902V16.1536" stroke="#78716C" stroke-width="0.923077" stroke-linecap="round" stroke-linejoin="round"/>
</g>
<defs>
<clipPath id="clip0_1_6414">
<rect width="11.0769" height="11.0769" fill="white" transform="translate(6.46155 6.46143)"/>
</clipPath>
</defs>
</svg>
